<svg xmlns="http://www.w3.org/2000/svg" xmlns:xlink="http://www.w3.org/1999/xlink" viewBox="0,0,255.99788,255.99788" width="48px" height="48px"><defs><linearGradient x1="9.993" y1="9.993" x2="40.615" y2="40.615" gradientUnits="userSpaceOnUse" id="color-1"><stop offset="0" stop-color="#040434"></stop><stop offset="1" stop-color="#040434"></stop></linearGradient></defs><g fill="none" fill-rule="nonzero" stroke="none" stroke-width="none" stroke-linecap="butt" stroke-linejoin="none" stroke-miterlimit="10" stroke-dasharray="" stroke-dashoffset="0" font-family="none" font-weight="none" font-size="none" text-anchor="none" style="mix-blend-mode: normal"><path transform="scale(5.33333,5.33333)" d="M44,24c0,10.127 -7.525,18.495 -17.289,19.818c-0.00687,0.00093 -0.01374,0.00168 -0.02062,0.00224c-0.88161,0.11853 -1.77513,0.17976 -2.69038,0.17976c-1.01188,0 -1.99813,-0.07593 -2.97146,-0.21995c-0.00818,-0.0008 -0.01636,-0.00182 -0.02454,-0.00305c-9.625,-1.446 -17.004,-9.749 -17.004,-19.777c0,-11.046 8.954,-20 20,-20c11.046,0 20,8.954 20,20z" id="strokeMainSVG" fill="#ffffff" stroke="#ffffff" stroke-width="2" stroke-linejoin="round"></path><g transform="scale(5.33333,5.33333)" stroke="none" stroke-width="1" stroke-linejoin="miter"><path d="M24,4c-11.046,0 -20,8.954 -20,20c0,10.028 7.379,18.331 17.004,19.777c0.977,0.147 1.978,-2.777 2.996,-2.777c0.919,0 1.824,2.938 2.711,2.818c9.764,-1.323 17.289,-9.691 17.289,-19.818c0,-11.046 -8.954,-20 -20,-20z" fill="url(#color-1)"></path><path d="M27.707,21.169c0,-1.424 0.305,-3.121 1.757,-3.121h4.283l-0.001,-5.617l-0.05,-0.852l-0.846,-0.114c-0.608,-0.082 -1.873,-0.253 -4.206,-0.253c-5.569,0 -8.636,3.315 -8.636,9.334v2.498h-4.948v7.258h4.948v13.298c1.29,0.261 2.625,0.4 3.992,0.4c1.268,0 2.504,-0.131 3.707,-0.357v-13.342h5.033l1.122,-7.258h-6.155z" fill="#000000" opacity="0.05"></path><path d="M27.207,21.169c0,-1.353 0.293,-3.621 2.257,-3.621h3.783v-5.088l-0.026,-0.44l-0.433,-0.059c-0.597,-0.081 -1.838,-0.249 -4.143,-0.249c-5.323,0 -8.136,3.055 -8.136,8.834v2.998h-4.949v6.258h4.948v13.874c1.136,0.2 2.298,0.324 3.492,0.324c1.094,0 2.16,-0.112 3.207,-0.281v-13.918h5.104l0.967,-6.258h-6.072v-2.374z" fill="#000000" opacity="0.05"></path><path d="M26.707,29.301h5.176l0.813,-5.258h-5.989v-2.874c0,-2.184 0.714,-4.121 2.757,-4.121h3.283v-4.588c-0.577,-0.078 -1.797,-0.248 -4.102,-0.248c-4.814,0 -7.636,2.542 -7.636,8.334v3.498h-4.949v5.258h4.948v14.475c0.98,0.146 1.973,0.223 2.992,0.223c0.921,0 1.82,-0.062 2.707,-0.182z" fill="#ffffff"></path></g></g></svg>